# xmcd
#
# Track frame offsets: 
#        150
#        450
#        15787
#        30147
#        52679
#        71529
#        87062
#        110087
#        135452
#        154399
#
# Disc length: 2389 seconds
#
# Revision: 0
# Processed by: cddbd v1.5.2PL0 Copyright (c) Steve Scherf et al.
# Submitted via: ExactAudioCopy v1.3
#
DISCID=6209530a
DTITLE=Lonnie Brooks - Reconsider Baby
DYEAR=1995
DGENRE=Chicago Blues
TTITLE0=Mama Talk To Your Daughter
TTITLE1=Reconsider Baby
TTITLE2=Sweet Home Chicago
TTITLE3=Things I Used To Do
TTITLE4=Big Leg Woman
TTITLE5=The Train And The Horse
TTITLE6=Crosscut Saw
TTITLE7=Woke Up This Morning
TTITLE8=Crazy 'Bout You Baby
TTITLE9=Two Guitars Shuffle
EXTD=
EXTT0=
EXTT1=
EXTT2=
EXTT3=
EXTT4=
EXTT5=
EXTT6=
EXTT7=
EXTT8=
EXTT9=
PLAYORDER=
